<mxfile host="Electron" agent="Mozilla/5.0 (Windows NT 10.0; Win64; x64) AppleWebKit/537.36 (KHTML, like Gecko) draw.io/26.0.9 Chrome/128.0.6613.186 Electron/32.2.5 Safari/537.36" version="26.0.9">
  <diagram id="3CqUWly9VH_zf_O0FjLb" name="Page-1">
    <mxGraphModel dx="2643" dy="1045" grid="1" gridSize="10" guides="1" tooltips="1" connect="1" arrows="1" fold="1" page="1" pageScale="1" pageWidth="850" pageHeight="1100" math="0" shadow="0">
      <root>
        <mxCell id="0" />
        <mxCell id="1" parent="0" />
        <mxCell id="rW97gdCueN_kluTE39mw-3" value="" style="group;" vertex="1" connectable="0" parent="1">
          <mxGeometry x="360" y="20" width="130" height="70" as="geometry" />
        </mxCell>
        <mxCell id="rW97gdCueN_kluTE39mw-1" value="Magic Production" style="rounded=1;whiteSpace=wrap;html=1;fillColor=#dae8fc;strokeColor=#6c8ebf;textShadow=1;fontColor=light-dark(#4D4D4D, #000000);" vertex="1" parent="rW97gdCueN_kluTE39mw-3">
          <mxGeometry y="10" width="120" height="60" as="geometry" />
        </mxCell>
        <mxCell id="rW97gdCueN_kluTE39mw-2" value="1" style="ellipse;whiteSpace=wrap;html=1;aspect=fixed;fillColor=#fff2cc;strokeColor=#d6b656;fontColor=#000000;" vertex="1" parent="rW97gdCueN_kluTE39mw-3">
          <mxGeometry x="110" width="20" height="20" as="geometry" />
        </mxCell>
        <mxCell id="rW97gdCueN_kluTE39mw-4" value="" style="group;" vertex="1" connectable="0" parent="1">
          <mxGeometry x="360" y="120" width="130" height="70" as="geometry" />
        </mxCell>
        <mxCell id="rW97gdCueN_kluTE39mw-5" value="Mana Stabilization" style="rounded=1;whiteSpace=wrap;html=1;fillColor=#dae8fc;strokeColor=#6c8ebf;textShadow=1;fontColor=light-dark(#4D4D4D, #000000);" vertex="1" parent="rW97gdCueN_kluTE39mw-4">
          <mxGeometry y="10" width="120" height="60" as="geometry" />
        </mxCell>
        <mxCell id="rW97gdCueN_kluTE39mw-6" value="1" style="ellipse;whiteSpace=wrap;html=1;aspect=fixed;fillColor=#fff2cc;strokeColor=#d6b656;fontColor=#000000;" vertex="1" parent="rW97gdCueN_kluTE39mw-4">
          <mxGeometry x="110" width="20" height="20" as="geometry" />
        </mxCell>
        <mxCell id="rW97gdCueN_kluTE39mw-7" value="" style="group;" vertex="1" connectable="0" parent="1">
          <mxGeometry x="360" y="420" width="130" height="70" as="geometry" />
        </mxCell>
        <mxCell id="rW97gdCueN_kluTE39mw-8" value="Rune Carving" style="rounded=1;whiteSpace=wrap;html=1;fillColor=#dae8fc;strokeColor=#6c8ebf;textShadow=1;fontColor=light-dark(#4D4D4D, #000000);" vertex="1" parent="rW97gdCueN_kluTE39mw-7">
          <mxGeometry y="10" width="120" height="60" as="geometry" />
        </mxCell>
        <mxCell id="rW97gdCueN_kluTE39mw-9" value="2" style="ellipse;whiteSpace=wrap;html=1;aspect=fixed;fillColor=#fff2cc;strokeColor=#d6b656;fontColor=#000000;" vertex="1" parent="rW97gdCueN_kluTE39mw-7">
          <mxGeometry x="110" width="20" height="20" as="geometry" />
        </mxCell>
        <mxCell id="rW97gdCueN_kluTE39mw-10" value="" style="group;" vertex="1" connectable="0" parent="1">
          <mxGeometry x="150" y="270" width="130" height="70" as="geometry" />
        </mxCell>
        <mxCell id="rW97gdCueN_kluTE39mw-11" value="Druid Magic" style="rounded=1;whiteSpace=wrap;html=1;fillColor=#dae8fc;strokeColor=#6c8ebf;textShadow=1;fontColor=light-dark(#4D4D4D, #000000);" vertex="1" parent="rW97gdCueN_kluTE39mw-10">
          <mxGeometry y="10" width="120" height="60" as="geometry" />
        </mxCell>
        <mxCell id="rW97gdCueN_kluTE39mw-12" value="2" style="ellipse;whiteSpace=wrap;html=1;aspect=fixed;fillColor=#fff2cc;strokeColor=#d6b656;fontColor=#000000;" vertex="1" parent="rW97gdCueN_kluTE39mw-10">
          <mxGeometry x="110" width="20" height="20" as="geometry" />
        </mxCell>
        <mxCell id="rW97gdCueN_kluTE39mw-13" value="" style="group;" vertex="1" connectable="0" parent="1">
          <mxGeometry x="170" y="550" width="130" height="70" as="geometry" />
        </mxCell>
        <mxCell id="rW97gdCueN_kluTE39mw-14" value="Mana Cores" style="rounded=1;whiteSpace=wrap;html=1;fillColor=#dae8fc;strokeColor=#6c8ebf;textShadow=1;fontColor=light-dark(#4D4D4D, #000000);" vertex="1" parent="rW97gdCueN_kluTE39mw-13">
          <mxGeometry y="10" width="120" height="60" as="geometry" />
        </mxCell>
        <mxCell id="rW97gdCueN_kluTE39mw-15" value="2" style="ellipse;whiteSpace=wrap;html=1;aspect=fixed;fillColor=#fff2cc;strokeColor=#d6b656;fontColor=#000000;" vertex="1" parent="rW97gdCueN_kluTE39mw-13">
          <mxGeometry x="110" width="20" height="20" as="geometry" />
        </mxCell>
        <mxCell id="rW97gdCueN_kluTE39mw-19" value="" style="group;" vertex="1" connectable="0" parent="1">
          <mxGeometry x="-40" y="420" width="130" height="70" as="geometry" />
        </mxCell>
        <mxCell id="rW97gdCueN_kluTE39mw-20" value="Murk Railways" style="rounded=1;whiteSpace=wrap;html=1;fillColor=#dae8fc;strokeColor=#6c8ebf;textShadow=1;fontColor=light-dark(#4D4D4D, #000000);" vertex="1" parent="rW97gdCueN_kluTE39mw-19">
          <mxGeometry y="10" width="120" height="60" as="geometry" />
        </mxCell>
        <mxCell id="rW97gdCueN_kluTE39mw-21" value="2" style="ellipse;whiteSpace=wrap;html=1;aspect=fixed;fillColor=#fff2cc;strokeColor=#d6b656;fontColor=#000000;" vertex="1" parent="rW97gdCueN_kluTE39mw-19">
          <mxGeometry x="110" width="20" height="20" as="geometry" />
        </mxCell>
        <mxCell id="rW97gdCueN_kluTE39mw-22" value="" style="group;" vertex="1" connectable="0" parent="1">
          <mxGeometry x="170" y="890" width="130" height="70" as="geometry" />
        </mxCell>
        <mxCell id="rW97gdCueN_kluTE39mw-23" value="Mechanical Golems" style="rounded=1;whiteSpace=wrap;html=1;fillColor=#dae8fc;strokeColor=#6c8ebf;textShadow=1;fontColor=light-dark(#4D4D4D, #000000);" vertex="1" parent="rW97gdCueN_kluTE39mw-22">
          <mxGeometry y="10" width="120" height="60" as="geometry" />
        </mxCell>
        <mxCell id="rW97gdCueN_kluTE39mw-24" value="3" style="ellipse;whiteSpace=wrap;html=1;aspect=fixed;fillColor=#fff2cc;strokeColor=#d6b656;fontColor=#000000;" vertex="1" parent="rW97gdCueN_kluTE39mw-22">
          <mxGeometry x="110" width="20" height="20" as="geometry" />
        </mxCell>
        <mxCell id="rW97gdCueN_kluTE39mw-25" value="" style="group;" vertex="1" connectable="0" parent="1">
          <mxGeometry x="170" y="720" width="130" height="70" as="geometry" />
        </mxCell>
        <mxCell id="rW97gdCueN_kluTE39mw-26" value="Magic Golems" style="rounded=1;whiteSpace=wrap;html=1;fillColor=#dae8fc;strokeColor=#6c8ebf;textShadow=1;fontColor=light-dark(#4D4D4D, #000000);" vertex="1" parent="rW97gdCueN_kluTE39mw-25">
          <mxGeometry y="10" width="120" height="60" as="geometry" />
        </mxCell>
        <mxCell id="rW97gdCueN_kluTE39mw-27" value="3" style="ellipse;whiteSpace=wrap;html=1;aspect=fixed;fillColor=#fff2cc;strokeColor=#d6b656;fontColor=#000000;" vertex="1" parent="rW97gdCueN_kluTE39mw-25">
          <mxGeometry x="110" width="20" height="20" as="geometry" />
        </mxCell>
        <mxCell id="rW97gdCueN_kluTE39mw-28" value="" style="group;" vertex="1" connectable="0" parent="1">
          <mxGeometry x="170" y="1060" width="130" height="70" as="geometry" />
        </mxCell>
        <mxCell id="rW97gdCueN_kluTE39mw-29" value="Electrical Golems" style="rounded=1;whiteSpace=wrap;html=1;fillColor=#dae8fc;strokeColor=#6c8ebf;textShadow=1;fontColor=light-dark(#4D4D4D, #000000);" vertex="1" parent="rW97gdCueN_kluTE39mw-28">
          <mxGeometry y="10" width="120" height="60" as="geometry" />
        </mxCell>
        <mxCell id="rW97gdCueN_kluTE39mw-30" value="4" style="ellipse;whiteSpace=wrap;html=1;aspect=fixed;fillColor=#fff2cc;strokeColor=#d6b656;fontColor=#000000;" vertex="1" parent="rW97gdCueN_kluTE39mw-28">
          <mxGeometry x="110" width="20" height="20" as="geometry" />
        </mxCell>
        <mxCell id="rW97gdCueN_kluTE39mw-31" style="edgeStyle=orthogonalEdgeStyle;rounded=0;orthogonalLoop=1;jettySize=auto;html=1;entryX=0.5;entryY=0;entryDx=0;entryDy=0;" edge="1" parent="1" source="rW97gdCueN_kluTE39mw-1" target="rW97gdCueN_kluTE39mw-5">
          <mxGeometry relative="1" as="geometry" />
        </mxCell>
        <mxCell id="rW97gdCueN_kluTE39mw-32" style="edgeStyle=orthogonalEdgeStyle;rounded=0;orthogonalLoop=1;jettySize=auto;html=1;" edge="1" parent="1" source="rW97gdCueN_kluTE39mw-5" target="rW97gdCueN_kluTE39mw-8">
          <mxGeometry relative="1" as="geometry" />
        </mxCell>
        <mxCell id="rW97gdCueN_kluTE39mw-33" value="" style="group;" vertex="1" connectable="0" parent="1">
          <mxGeometry x="520" y="270" width="130" height="70" as="geometry" />
        </mxCell>
        <mxCell id="rW97gdCueN_kluTE39mw-34" value="Mechanical Tools" style="rounded=1;whiteSpace=wrap;html=1;fillColor=#e1d5e7;strokeColor=#9673a6;textShadow=1;fontColor=#000000;" vertex="1" parent="rW97gdCueN_kluTE39mw-33">
          <mxGeometry y="10" width="120" height="60" as="geometry" />
        </mxCell>
        <mxCell id="rW97gdCueN_kluTE39mw-35" value="2" style="ellipse;whiteSpace=wrap;html=1;aspect=fixed;fillColor=#fff2cc;strokeColor=#d6b656;fontColor=#000000;" vertex="1" parent="rW97gdCueN_kluTE39mw-33">
          <mxGeometry x="110" width="20" height="20" as="geometry" />
        </mxCell>
        <mxCell id="rW97gdCueN_kluTE39mw-36" style="edgeStyle=orthogonalEdgeStyle;rounded=0;orthogonalLoop=1;jettySize=auto;html=1;entryX=0.5;entryY=0;entryDx=0;entryDy=0;exitX=0.5;exitY=1;exitDx=0;exitDy=0;" edge="1" parent="1" source="rW97gdCueN_kluTE39mw-34" target="rW97gdCueN_kluTE39mw-8">
          <mxGeometry relative="1" as="geometry">
            <Array as="points">
              <mxPoint x="580" y="380" />
              <mxPoint x="420" y="380" />
            </Array>
          </mxGeometry>
        </mxCell>
        <mxCell id="rW97gdCueN_kluTE39mw-16" value="" style="group;" vertex="1" connectable="0" parent="1">
          <mxGeometry x="-40" y="30" width="130" height="70" as="geometry" />
        </mxCell>
        <mxCell id="rW97gdCueN_kluTE39mw-17" value="Murk Travel" style="rounded=1;whiteSpace=wrap;html=1;fillColor=#dae8fc;strokeColor=#6c8ebf;textShadow=1;fontColor=light-dark(#4D4D4D, #000000);" vertex="1" parent="rW97gdCueN_kluTE39mw-16">
          <mxGeometry y="10" width="120" height="60" as="geometry" />
        </mxCell>
        <mxCell id="rW97gdCueN_kluTE39mw-18" value="1" style="ellipse;whiteSpace=wrap;html=1;aspect=fixed;fillColor=#fff2cc;strokeColor=#d6b656;fontColor=#000000;" vertex="1" parent="rW97gdCueN_kluTE39mw-16">
          <mxGeometry x="110" width="20" height="20" as="geometry" />
        </mxCell>
        <mxCell id="rW97gdCueN_kluTE39mw-37" style="edgeStyle=orthogonalEdgeStyle;rounded=0;orthogonalLoop=1;jettySize=auto;html=1;" edge="1" parent="1" source="rW97gdCueN_kluTE39mw-1" target="rW97gdCueN_kluTE39mw-11">
          <mxGeometry relative="1" as="geometry" />
        </mxCell>
        <mxCell id="rW97gdCueN_kluTE39mw-38" style="edgeStyle=orthogonalEdgeStyle;rounded=0;orthogonalLoop=1;jettySize=auto;html=1;" edge="1" parent="1" source="rW97gdCueN_kluTE39mw-17" target="rW97gdCueN_kluTE39mw-20">
          <mxGeometry relative="1" as="geometry" />
        </mxCell>
        <mxCell id="rW97gdCueN_kluTE39mw-39" value="" style="group;" vertex="1" connectable="0" parent="1">
          <mxGeometry x="-240" y="270" width="130" height="70" as="geometry" />
        </mxCell>
        <mxCell id="rW97gdCueN_kluTE39mw-40" value="Railways" style="rounded=1;whiteSpace=wrap;html=1;fillColor=#e1d5e7;strokeColor=#9673a6;textShadow=1;fontColor=#000000;" vertex="1" parent="rW97gdCueN_kluTE39mw-39">
          <mxGeometry y="10" width="120" height="60" as="geometry" />
        </mxCell>
        <mxCell id="rW97gdCueN_kluTE39mw-41" value="2" style="ellipse;whiteSpace=wrap;html=1;aspect=fixed;fillColor=#fff2cc;strokeColor=#d6b656;fontColor=#000000;" vertex="1" parent="rW97gdCueN_kluTE39mw-39">
          <mxGeometry x="110" width="20" height="20" as="geometry" />
        </mxCell>
        <mxCell id="rW97gdCueN_kluTE39mw-42" style="edgeStyle=orthogonalEdgeStyle;rounded=0;orthogonalLoop=1;jettySize=auto;html=1;" edge="1" parent="1" source="rW97gdCueN_kluTE39mw-40" target="rW97gdCueN_kluTE39mw-20">
          <mxGeometry relative="1" as="geometry" />
        </mxCell>
        <mxCell id="rW97gdCueN_kluTE39mw-43" style="edgeStyle=orthogonalEdgeStyle;rounded=0;orthogonalLoop=1;jettySize=auto;html=1;entryX=0.5;entryY=0;entryDx=0;entryDy=0;exitX=0;exitY=0.5;exitDx=0;exitDy=0;" edge="1" parent="1" source="rW97gdCueN_kluTE39mw-5" target="rW97gdCueN_kluTE39mw-14">
          <mxGeometry relative="1" as="geometry">
            <Array as="points">
              <mxPoint x="330" y="160" />
              <mxPoint x="330" y="380" />
              <mxPoint x="230" y="380" />
            </Array>
          </mxGeometry>
        </mxCell>
        <mxCell id="rW97gdCueN_kluTE39mw-44" style="edgeStyle=orthogonalEdgeStyle;rounded=0;orthogonalLoop=1;jettySize=auto;html=1;" edge="1" parent="1" source="rW97gdCueN_kluTE39mw-40" target="rW97gdCueN_kluTE39mw-14">
          <mxGeometry relative="1" as="geometry">
            <Array as="points">
              <mxPoint x="-180" y="520" />
              <mxPoint x="230" y="520" />
            </Array>
          </mxGeometry>
        </mxCell>
        <mxCell id="rW97gdCueN_kluTE39mw-45" style="edgeStyle=orthogonalEdgeStyle;rounded=0;orthogonalLoop=1;jettySize=auto;html=1;entryX=0.5;entryY=0;entryDx=0;entryDy=0;" edge="1" parent="1" source="rW97gdCueN_kluTE39mw-14" target="rW97gdCueN_kluTE39mw-26">
          <mxGeometry relative="1" as="geometry" />
        </mxCell>
        <mxCell id="rW97gdCueN_kluTE39mw-46" style="edgeStyle=orthogonalEdgeStyle;rounded=0;orthogonalLoop=1;jettySize=auto;html=1;" edge="1" parent="1" source="rW97gdCueN_kluTE39mw-26" target="rW97gdCueN_kluTE39mw-23">
          <mxGeometry relative="1" as="geometry" />
        </mxCell>
        <mxCell id="rW97gdCueN_kluTE39mw-47" value="" style="group;" vertex="1" connectable="0" parent="1">
          <mxGeometry x="360" y="550" width="130" height="70" as="geometry" />
        </mxCell>
        <mxCell id="rW97gdCueN_kluTE39mw-48" value="Atmospheric Engine" style="rounded=1;whiteSpace=wrap;html=1;fillColor=#e1d5e7;strokeColor=#9673a6;textShadow=1;fontColor=#000000;" vertex="1" parent="rW97gdCueN_kluTE39mw-47">
          <mxGeometry y="10" width="120" height="60" as="geometry" />
        </mxCell>
        <mxCell id="rW97gdCueN_kluTE39mw-49" value="2" style="ellipse;whiteSpace=wrap;html=1;aspect=fixed;fillColor=#fff2cc;strokeColor=#d6b656;fontColor=#000000;" vertex="1" parent="rW97gdCueN_kluTE39mw-47">
          <mxGeometry x="110" width="20" height="20" as="geometry" />
        </mxCell>
        <mxCell id="rW97gdCueN_kluTE39mw-50" style="edgeStyle=orthogonalEdgeStyle;rounded=0;orthogonalLoop=1;jettySize=auto;html=1;entryX=0.5;entryY=0;entryDx=0;entryDy=0;" edge="1" parent="1" source="rW97gdCueN_kluTE39mw-48" target="rW97gdCueN_kluTE39mw-23">
          <mxGeometry relative="1" as="geometry">
            <Array as="points">
              <mxPoint x="420" y="840" />
              <mxPoint x="230" y="840" />
            </Array>
          </mxGeometry>
        </mxCell>
        <mxCell id="rW97gdCueN_kluTE39mw-51" style="edgeStyle=orthogonalEdgeStyle;rounded=0;orthogonalLoop=1;jettySize=auto;html=1;" edge="1" parent="1" source="rW97gdCueN_kluTE39mw-23" target="rW97gdCueN_kluTE39mw-29">
          <mxGeometry relative="1" as="geometry" />
        </mxCell>
        <mxCell id="rW97gdCueN_kluTE39mw-52" value="" style="group;" vertex="1" connectable="0" parent="1">
          <mxGeometry x="360" y="890" width="130" height="70" as="geometry" />
        </mxCell>
        <mxCell id="rW97gdCueN_kluTE39mw-55" style="edgeStyle=orthogonalEdgeStyle;rounded=0;orthogonalLoop=1;jettySize=auto;html=1;" edge="1" parent="rW97gdCueN_kluTE39mw-52" source="rW97gdCueN_kluTE39mw-53">
          <mxGeometry relative="1" as="geometry">
            <mxPoint x="-130" y="180.00000000000023" as="targetPoint" />
            <Array as="points">
              <mxPoint x="60" y="120" />
              <mxPoint x="-129" y="120" />
              <mxPoint x="-129" y="180" />
            </Array>
          </mxGeometry>
        </mxCell>
        <mxCell id="rW97gdCueN_kluTE39mw-53" value="Electrical Generation" style="rounded=1;whiteSpace=wrap;html=1;fillColor=#e1d5e7;strokeColor=#9673a6;textShadow=1;fontColor=#000000;" vertex="1" parent="rW97gdCueN_kluTE39mw-52">
          <mxGeometry y="10" width="120" height="60" as="geometry" />
        </mxCell>
        <mxCell id="rW97gdCueN_kluTE39mw-54" value="3" style="ellipse;whiteSpace=wrap;html=1;aspect=fixed;fillColor=#fff2cc;strokeColor=#d6b656;fontColor=#000000;" vertex="1" parent="rW97gdCueN_kluTE39mw-52">
          <mxGeometry x="110" width="20" height="20" as="geometry" />
        </mxCell>
        <mxCell id="rW97gdCueN_kluTE39mw-56" value="" style="endArrow=none;dashed=1;html=1;dashPattern=1 3;strokeWidth=2;rounded=0;" edge="1" parent="1">
          <mxGeometry width="50" height="50" relative="1" as="geometry">
            <mxPoint x="-530" y="220" as="sourcePoint" />
            <mxPoint x="800" y="220" as="targetPoint" />
          </mxGeometry>
        </mxCell>
        <mxCell id="rW97gdCueN_kluTE39mw-57" value="" style="endArrow=none;dashed=1;html=1;dashPattern=1 3;strokeWidth=2;rounded=0;" edge="1" parent="1">
          <mxGeometry width="50" height="50" relative="1" as="geometry">
            <mxPoint x="-530" y="680" as="sourcePoint" />
            <mxPoint x="800" y="680" as="targetPoint" />
          </mxGeometry>
        </mxCell>
        <mxCell id="rW97gdCueN_kluTE39mw-58" value="" style="endArrow=none;dashed=1;html=1;dashPattern=1 3;strokeWidth=2;rounded=0;" edge="1" parent="1">
          <mxGeometry width="50" height="50" relative="1" as="geometry">
            <mxPoint x="-530" y="1020" as="sourcePoint" />
            <mxPoint x="800" y="1020" as="targetPoint" />
          </mxGeometry>
        </mxCell>
        <mxCell id="rW97gdCueN_kluTE39mw-62" value="&lt;h1 style=&quot;margin-top: 0px;&quot;&gt;&lt;span style=&quot;background-color: transparent; color: light-dark(rgb(0, 0, 0), rgb(255, 255, 255));&quot;&gt;Era 2&lt;/span&gt;&lt;br&gt;&lt;/h1&gt;&lt;div&gt;&lt;span style=&quot;background-color: transparent;&quot;&gt;1836 - 1861&lt;br&gt;&lt;/span&gt;&lt;/div&gt;" style="text;html=1;whiteSpace=wrap;overflow=hidden;rounded=0;fontSize=16;" vertex="1" parent="1">
          <mxGeometry x="-530" y="400" width="110" height="100" as="geometry" />
        </mxCell>
        <mxCell id="rW97gdCueN_kluTE39mw-63" value="&lt;h1 style=&quot;margin-top: 0px;&quot;&gt;&lt;span style=&quot;background-color: transparent; color: light-dark(rgb(0, 0, 0), rgb(255, 255, 255));&quot;&gt;Era 1&lt;/span&gt;&lt;br&gt;&lt;/h1&gt;&lt;div&gt;&lt;span style=&quot;background-color: transparent;&quot;&gt;Before 1836&lt;br&gt;&lt;/span&gt;&lt;/div&gt;" style="text;html=1;whiteSpace=wrap;overflow=hidden;rounded=0;fontSize=16;" vertex="1" parent="1">
          <mxGeometry x="-530" y="50" width="110" height="100" as="geometry" />
        </mxCell>
        <mxCell id="rW97gdCueN_kluTE39mw-64" value="&lt;h1 style=&quot;margin-top: 0px;&quot;&gt;&lt;span style=&quot;background-color: transparent; color: light-dark(rgb(0, 0, 0), rgb(255, 255, 255));&quot;&gt;Era 3&lt;/span&gt;&lt;br&gt;&lt;/h1&gt;&lt;div&gt;&lt;span style=&quot;background-color: transparent;&quot;&gt;1862 - 1886&lt;br&gt;&lt;/span&gt;&lt;/div&gt;" style="text;html=1;whiteSpace=wrap;overflow=hidden;rounded=0;fontSize=16;" vertex="1" parent="1">
          <mxGeometry x="-530" y="800" width="110" height="100" as="geometry" />
        </mxCell>
        <mxCell id="rW97gdCueN_kluTE39mw-65" value="&lt;h1 style=&quot;margin-top: 0px;&quot;&gt;&lt;span style=&quot;background-color: transparent; color: light-dark(rgb(0, 0, 0), rgb(255, 255, 255));&quot;&gt;Era 4&lt;/span&gt;&lt;br&gt;&lt;/h1&gt;&lt;div&gt;&lt;span style=&quot;background-color: transparent;&quot;&gt;1887 - 1911&lt;br&gt;&lt;/span&gt;&lt;/div&gt;" style="text;html=1;whiteSpace=wrap;overflow=hidden;rounded=0;fontSize=16;" vertex="1" parent="1">
          <mxGeometry x="-530" y="1120" width="110" height="100" as="geometry" />
        </mxCell>
        <mxCell id="rW97gdCueN_kluTE39mw-67" value="" style="group;" vertex="1" connectable="0" parent="1">
          <mxGeometry x="-770" y="80" width="190" height="270" as="geometry" />
        </mxCell>
        <mxCell id="rW97gdCueN_kluTE39mw-73" value="&lt;font style=&quot;font-size: 15px;&quot;&gt;&lt;b&gt;&amp;nbsp; Legend&lt;/b&gt;&lt;/font&gt;" style="rounded=0;whiteSpace=wrap;html=1;align=left;verticalAlign=top;" vertex="1" parent="rW97gdCueN_kluTE39mw-67">
          <mxGeometry x="-60" y="-40" width="250" height="310" as="geometry" />
        </mxCell>
        <mxCell id="rW97gdCueN_kluTE39mw-68" value="Magic&lt;br&gt;Technology Name" style="rounded=1;whiteSpace=wrap;html=1;fillColor=#dae8fc;strokeColor=#6c8ebf;textShadow=1;fontColor=light-dark(#4D4D4D, #000000);" vertex="1" parent="rW97gdCueN_kluTE39mw-67">
          <mxGeometry y="10" width="120" height="60" as="geometry" />
        </mxCell>
        <mxCell id="rW97gdCueN_kluTE39mw-69" value="E" style="ellipse;whiteSpace=wrap;html=1;aspect=fixed;fillColor=#fff2cc;strokeColor=#d6b656;fontColor=#000000;" vertex="1" parent="rW97gdCueN_kluTE39mw-67">
          <mxGeometry x="110" width="20" height="20" as="geometry" />
        </mxCell>
        <mxCell id="rW97gdCueN_kluTE39mw-74" value="&lt;font style=&quot;font-size: 14px;&quot;&gt;E = Era&lt;/font&gt;" style="text;html=1;align=center;verticalAlign=middle;whiteSpace=wrap;rounded=0;" vertex="1" parent="rW97gdCueN_kluTE39mw-67">
          <mxGeometry x="20" y="200" width="60" height="30" as="geometry" />
        </mxCell>
        <mxCell id="rW97gdCueN_kluTE39mw-70" value="" style="group;" vertex="1" connectable="0" parent="1">
          <mxGeometry x="-770" y="180" width="130" height="70" as="geometry" />
        </mxCell>
        <mxCell id="rW97gdCueN_kluTE39mw-71" value="&lt;font style=&quot;color: rgb(0, 0, 0);&quot;&gt;No&lt;span style=&quot;background-color: transparent;&quot;&gt;n Magic&lt;/span&gt;&lt;/font&gt;&lt;div&gt;&lt;font style=&quot;color: rgb(0, 0, 0);&quot;&gt;Technology Name&lt;/font&gt;&lt;/div&gt;" style="rounded=1;whiteSpace=wrap;html=1;fillColor=#e1d5e7;strokeColor=#9673a6;textShadow=1;fontColor=#000000;" vertex="1" parent="rW97gdCueN_kluTE39mw-70">
          <mxGeometry y="10" width="120" height="60" as="geometry" />
        </mxCell>
        <mxCell id="rW97gdCueN_kluTE39mw-72" value="E" style="ellipse;whiteSpace=wrap;html=1;aspect=fixed;fillColor=#fff2cc;strokeColor=#d6b656;fontColor=#000000;" vertex="1" parent="rW97gdCueN_kluTE39mw-70">
          <mxGeometry x="110" width="20" height="20" as="geometry" />
        </mxCell>
      </root>
    </mxGraphModel>
  </diagram>
</mxfile>
